<mxfile host="app.diagrams.net" modified="2024-04-23T01:32:06.297Z" agent="Mozilla/5.0 (Windows NT 10.0; Win64; x64; rv:125.0) Gecko/20100101 Firefox/125.0" etag="X8jU3g5tqsa0Y18IOAow" version="24.2.7" type="github">
  <diagram name="第 1 页" id="UziOLpM5YsbqwVn2DmHD">
    <mxGraphModel dx="3109" dy="1380" grid="0" gridSize="10" guides="1" tooltips="1" connect="1" arrows="1" fold="1" page="0" pageScale="1" pageWidth="827" pageHeight="1169" math="0" shadow="0">
      <root>
        <mxCell id="0" />
        <mxCell id="1" parent="0" />
        <mxCell id="OHT-_fJKQ6jHZzlT6oBC-2" value="" style="shape=flexArrow;endArrow=classic;html=1;rounded=0;fontSize=22;" parent="1" edge="1">
          <mxGeometry width="50" height="50" relative="1" as="geometry">
            <mxPoint x="-231" y="212.71" as="sourcePoint" />
            <mxPoint x="-79" y="212.71" as="targetPoint" />
          </mxGeometry>
        </mxCell>
        <mxCell id="OHT-_fJKQ6jHZzlT6oBC-3" value="&lt;font style=&quot;font-size: 22px;&quot;&gt;&lt;font style=&quot;font-size: 22px;&quot;&gt;混合&lt;/font&gt;&lt;/font&gt;" style="text;html=1;align=center;verticalAlign=middle;resizable=0;points=[];autosize=1;strokeColor=none;fillColor=none;fontSize=22;" parent="1" vertex="1">
          <mxGeometry x="-196" y="169" width="62" height="38" as="geometry" />
        </mxCell>
        <mxCell id="OHT-_fJKQ6jHZzlT6oBC-31" value="" style="endArrow=classic;html=1;rounded=0;fontSize=22;" parent="1" edge="1">
          <mxGeometry width="50" height="50" relative="1" as="geometry">
            <mxPoint x="-571" y="80" as="sourcePoint" />
            <mxPoint x="-377" y="80" as="targetPoint" />
          </mxGeometry>
        </mxCell>
        <mxCell id="OHT-_fJKQ6jHZzlT6oBC-38" value="" style="shape=flexArrow;endArrow=classic;html=1;rounded=0;fillColor=#60a917;strokeColor=#2D7600;endWidth=19;endSize=2.44;width=1;fontSize=22;" parent="1" edge="1">
          <mxGeometry width="50" height="50" relative="1" as="geometry">
            <mxPoint x="-555" y="80" as="sourcePoint" />
            <mxPoint x="-555" y="110" as="targetPoint" />
          </mxGeometry>
        </mxCell>
        <mxCell id="OHT-_fJKQ6jHZzlT6oBC-39" value="" style="shape=flexArrow;endArrow=classic;html=1;rounded=0;fillColor=#60a917;strokeColor=#2D7600;endWidth=19;endSize=2.44;width=1;fontSize=22;" parent="1" edge="1">
          <mxGeometry width="50" height="50" relative="1" as="geometry">
            <mxPoint x="-534" y="80" as="sourcePoint" />
            <mxPoint x="-534" y="110" as="targetPoint" />
          </mxGeometry>
        </mxCell>
        <mxCell id="OHT-_fJKQ6jHZzlT6oBC-40" value="" style="shape=flexArrow;endArrow=classic;html=1;rounded=0;endWidth=19;endSize=2.44;width=1;fillColor=#1ba1e2;strokeColor=#006EAF;fontSize=22;" parent="1" edge="1">
          <mxGeometry width="50" height="50" relative="1" as="geometry">
            <mxPoint x="-514" y="80" as="sourcePoint" />
            <mxPoint x="-514" y="50" as="targetPoint" />
          </mxGeometry>
        </mxCell>
        <mxCell id="OHT-_fJKQ6jHZzlT6oBC-41" value="" style="shape=flexArrow;endArrow=classic;html=1;rounded=0;fillColor=#60a917;strokeColor=#2D7600;endWidth=19;endSize=2.44;width=1;fontSize=22;" parent="1" edge="1">
          <mxGeometry width="50" height="50" relative="1" as="geometry">
            <mxPoint x="-493" y="79" as="sourcePoint" />
            <mxPoint x="-493" y="109" as="targetPoint" />
          </mxGeometry>
        </mxCell>
        <mxCell id="OHT-_fJKQ6jHZzlT6oBC-42" value="" style="shape=flexArrow;endArrow=classic;html=1;rounded=0;fillColor=#60a917;strokeColor=#2D7600;endWidth=19;endSize=2.44;width=1;fontSize=22;" parent="1" edge="1">
          <mxGeometry width="50" height="50" relative="1" as="geometry">
            <mxPoint x="-471" y="80" as="sourcePoint" />
            <mxPoint x="-471" y="110" as="targetPoint" />
          </mxGeometry>
        </mxCell>
        <mxCell id="OHT-_fJKQ6jHZzlT6oBC-43" value="" style="shape=flexArrow;endArrow=classic;html=1;rounded=0;endWidth=19;endSize=2.44;width=1;fillColor=#1ba1e2;strokeColor=#006EAF;fontSize=22;" parent="1" edge="1">
          <mxGeometry width="50" height="50" relative="1" as="geometry">
            <mxPoint x="-450" y="80" as="sourcePoint" />
            <mxPoint x="-450" y="50" as="targetPoint" />
          </mxGeometry>
        </mxCell>
        <mxCell id="OHT-_fJKQ6jHZzlT6oBC-44" value="&lt;font style=&quot;font-size: 22px;&quot;&gt;&lt;font style=&quot;font-size: 22px;&quot;&gt;方向序列&lt;/font&gt;&lt;/font&gt;" style="text;html=1;align=center;verticalAlign=middle;resizable=0;points=[];autosize=1;strokeColor=none;fillColor=none;fontSize=22;" parent="1" vertex="1">
          <mxGeometry x="-707" y="58" width="106" height="38" as="geometry" />
        </mxCell>
        <mxCell id="OHT-_fJKQ6jHZzlT6oBC-45" value="&lt;font style=&quot;font-size: 22px;&quot;&gt;&lt;font style=&quot;font-size: 22px;&quot;&gt;标签&lt;/font&gt;&lt;/font&gt;" style="text;html=1;align=center;verticalAlign=middle;resizable=0;points=[];autosize=1;strokeColor=none;fillColor=none;fontSize=22;" parent="1" vertex="1">
          <mxGeometry x="-789" y="58" width="62" height="38" as="geometry" />
        </mxCell>
        <mxCell id="OHT-_fJKQ6jHZzlT6oBC-46" value="&lt;div style=&quot;font-size: 22px;&quot;&gt;&lt;font style=&quot;font-size: 22px;&quot;&gt;&lt;font style=&quot;font-size: 22px;&quot;&gt;0&lt;/font&gt;&lt;/font&gt;&lt;/div&gt;&lt;div style=&quot;font-size: 22px;&quot;&gt;&lt;font style=&quot;font-size: 22px;&quot;&gt;&lt;font style=&quot;font-size: 22px;&quot;&gt;1&lt;/font&gt;&lt;/font&gt;&lt;/div&gt;&lt;div style=&quot;font-size: 22px;&quot;&gt;&lt;font style=&quot;font-size: 22px;&quot;&gt;&lt;font style=&quot;font-size: 22px;&quot;&gt;0&lt;br style=&quot;font-size: 22px;&quot;&gt;&lt;/font&gt;&lt;/font&gt;&lt;/div&gt;&lt;div style=&quot;font-size: 22px;&quot;&gt;&lt;font style=&quot;font-size: 22px;&quot;&gt;&lt;font style=&quot;font-size: 22px;&quot;&gt;&lt;font style=&quot;font-size: 22px;&quot;&gt;0&lt;/font&gt;&lt;br style=&quot;font-size: 22px;&quot;&gt;&lt;/font&gt;&lt;/font&gt;&lt;/div&gt;" style="rounded=0;whiteSpace=wrap;html=1;fontSize=22;" parent="1" vertex="1">
          <mxGeometry x="-775.5" y="94" width="34" height="108" as="geometry" />
        </mxCell>
        <mxCell id="OHT-_fJKQ6jHZzlT6oBC-96" value="" style="shape=flexArrow;endArrow=classic;html=1;rounded=0;endWidth=19;endSize=2.44;width=1;fillColor=#1ba1e2;strokeColor=#006EAF;fontSize=22;" parent="1" edge="1">
          <mxGeometry width="50" height="50" relative="1" as="geometry">
            <mxPoint x="-387.99857142857616" y="4" as="sourcePoint" />
            <mxPoint x="-387.99857142857616" y="-26" as="targetPoint" />
          </mxGeometry>
        </mxCell>
        <mxCell id="OHT-_fJKQ6jHZzlT6oBC-97" value="" style="shape=flexArrow;endArrow=classic;html=1;rounded=0;fillColor=#60a917;strokeColor=#2D7600;endWidth=19;endSize=2.44;width=1;fontSize=22;" parent="1" edge="1">
          <mxGeometry width="50" height="50" relative="1" as="geometry">
            <mxPoint x="-129.85571428571922" y="-26" as="sourcePoint" />
            <mxPoint x="-129.85571428571922" y="4" as="targetPoint" />
          </mxGeometry>
        </mxCell>
        <mxCell id="OHT-_fJKQ6jHZzlT6oBC-98" value="&lt;font style=&quot;font-size: 22px;&quot;&gt;&lt;font style=&quot;font-size: 22px;&quot;&gt;传出&lt;br style=&quot;font-size: 22px;&quot;&gt;&lt;/font&gt;&lt;/font&gt;" style="text;html=1;align=center;verticalAlign=middle;resizable=0;points=[];autosize=1;strokeColor=none;fillColor=none;fontSize=22;" parent="1" vertex="1">
          <mxGeometry x="-330.00000000000006" y="-28" width="62" height="38" as="geometry" />
        </mxCell>
        <mxCell id="OHT-_fJKQ6jHZzlT6oBC-99" value="&lt;font style=&quot;font-size: 22px;&quot;&gt;&lt;font style=&quot;font-size: 22px;&quot;&gt;传入&lt;br style=&quot;font-size: 22px;&quot;&gt;&lt;/font&gt;&lt;/font&gt;" style="text;html=1;align=center;verticalAlign=middle;resizable=0;points=[];autosize=1;strokeColor=none;fillColor=none;fontSize=22;" parent="1" vertex="1">
          <mxGeometry x="-71.5" y="-28" width="62" height="38" as="geometry" />
        </mxCell>
        <mxCell id="OHT-_fJKQ6jHZzlT6oBC-125" value="&lt;font style=&quot;font-size: 22px;&quot;&gt;&lt;font style=&quot;font-size: 22px;&quot;&gt;时间序列&lt;/font&gt;&lt;/font&gt;" style="text;html=1;align=center;verticalAlign=middle;resizable=0;points=[];autosize=1;strokeColor=none;fillColor=none;fontSize=22;" parent="1" vertex="1">
          <mxGeometry x="-707" y="164" width="106" height="38" as="geometry" />
        </mxCell>
        <mxCell id="OHT-_fJKQ6jHZzlT6oBC-129" value="&lt;font style=&quot;font-size: 22px;&quot;&gt;&lt;font style=&quot;font-size: 22px;&quot;&gt;【1000,1050,1100,1150】&lt;/font&gt;&lt;/font&gt;" style="text;html=1;align=center;verticalAlign=middle;resizable=0;points=[];autosize=1;strokeColor=none;fillColor=none;fontSize=22;" parent="1" vertex="1">
          <mxGeometry x="-607" y="165" width="276" height="38" as="geometry" />
        </mxCell>
        <mxCell id="OHT-_fJKQ6jHZzlT6oBC-131" value="" style="endArrow=classic;html=1;rounded=0;fontSize=22;" parent="1" edge="1">
          <mxGeometry width="50" height="50" relative="1" as="geometry">
            <mxPoint x="-571" y="256" as="sourcePoint" />
            <mxPoint x="-377" y="256" as="targetPoint" />
          </mxGeometry>
        </mxCell>
        <mxCell id="OHT-_fJKQ6jHZzlT6oBC-132" value="" style="shape=flexArrow;endArrow=classic;html=1;rounded=0;fillColor=#60a917;strokeColor=#2D7600;endWidth=19;endSize=2.44;width=1;fontSize=22;" parent="1" edge="1">
          <mxGeometry width="50" height="50" relative="1" as="geometry">
            <mxPoint x="-555" y="256" as="sourcePoint" />
            <mxPoint x="-555" y="286" as="targetPoint" />
          </mxGeometry>
        </mxCell>
        <mxCell id="OHT-_fJKQ6jHZzlT6oBC-133" value="" style="shape=flexArrow;endArrow=classic;html=1;rounded=0;fillColor=#60a917;strokeColor=#2D7600;endWidth=19;endSize=2.44;width=1;fontSize=22;" parent="1" edge="1">
          <mxGeometry width="50" height="50" relative="1" as="geometry">
            <mxPoint x="-534" y="256" as="sourcePoint" />
            <mxPoint x="-534" y="286" as="targetPoint" />
          </mxGeometry>
        </mxCell>
        <mxCell id="OHT-_fJKQ6jHZzlT6oBC-135" value="" style="shape=flexArrow;endArrow=classic;html=1;rounded=0;fillColor=#60a917;strokeColor=#2D7600;endWidth=19;endSize=2.44;width=1;fontSize=22;" parent="1" edge="1">
          <mxGeometry width="50" height="50" relative="1" as="geometry">
            <mxPoint x="-493" y="255" as="sourcePoint" />
            <mxPoint x="-493" y="285" as="targetPoint" />
          </mxGeometry>
        </mxCell>
        <mxCell id="OHT-_fJKQ6jHZzlT6oBC-137" value="" style="shape=flexArrow;endArrow=classic;html=1;rounded=0;endWidth=19;endSize=2.44;width=1;fillColor=#1ba1e2;strokeColor=#006EAF;fontSize=22;" parent="1" edge="1">
          <mxGeometry width="50" height="50" relative="1" as="geometry">
            <mxPoint x="-450" y="256" as="sourcePoint" />
            <mxPoint x="-450" y="226" as="targetPoint" />
          </mxGeometry>
        </mxCell>
        <mxCell id="OHT-_fJKQ6jHZzlT6oBC-138" value="&lt;font style=&quot;font-size: 22px;&quot;&gt;&lt;font style=&quot;font-size: 22px;&quot;&gt;方向序列&lt;/font&gt;&lt;/font&gt;" style="text;html=1;align=center;verticalAlign=middle;resizable=0;points=[];autosize=1;strokeColor=none;fillColor=none;fontSize=22;" parent="1" vertex="1">
          <mxGeometry x="-707" y="234" width="106" height="38" as="geometry" />
        </mxCell>
        <mxCell id="OHT-_fJKQ6jHZzlT6oBC-139" value="&lt;font style=&quot;font-size: 22px;&quot;&gt;&lt;font style=&quot;font-size: 22px;&quot;&gt;标签&lt;/font&gt;&lt;/font&gt;" style="text;html=1;align=center;verticalAlign=middle;resizable=0;points=[];autosize=1;strokeColor=none;fillColor=none;fontSize=22;" parent="1" vertex="1">
          <mxGeometry x="-789" y="234" width="62" height="38" as="geometry" />
        </mxCell>
        <mxCell id="OHT-_fJKQ6jHZzlT6oBC-140" value="&lt;div style=&quot;font-size: 22px;&quot;&gt;&lt;font style=&quot;font-size: 22px;&quot;&gt;&lt;font style=&quot;font-size: 22px;&quot;&gt;0&lt;/font&gt;&lt;/font&gt;&lt;/div&gt;&lt;div style=&quot;font-size: 22px;&quot;&gt;&lt;font style=&quot;font-size: 22px;&quot;&gt;&lt;font style=&quot;font-size: 22px;&quot;&gt;1&lt;/font&gt;&lt;/font&gt;&lt;/div&gt;&lt;div style=&quot;font-size: 22px;&quot;&gt;&lt;font style=&quot;font-size: 22px;&quot;&gt;&lt;font style=&quot;font-size: 22px;&quot;&gt;0&lt;br style=&quot;font-size: 22px;&quot;&gt;&lt;/font&gt;&lt;/font&gt;&lt;/div&gt;&lt;div style=&quot;font-size: 22px;&quot;&gt;&lt;font style=&quot;font-size: 22px;&quot;&gt;&lt;font style=&quot;font-size: 22px;&quot;&gt;&lt;font style=&quot;font-size: 22px;&quot;&gt;0&lt;/font&gt;&lt;br style=&quot;font-size: 22px;&quot;&gt;&lt;/font&gt;&lt;/font&gt;&lt;/div&gt;" style="rounded=0;whiteSpace=wrap;html=1;fontSize=22;" parent="1" vertex="1">
          <mxGeometry x="-775.5" y="270" width="34" height="108" as="geometry" />
        </mxCell>
        <mxCell id="OHT-_fJKQ6jHZzlT6oBC-141" value="&lt;font style=&quot;font-size: 22px;&quot;&gt;&lt;font style=&quot;font-size: 22px;&quot;&gt;时间序列&lt;/font&gt;&lt;/font&gt;" style="text;html=1;align=center;verticalAlign=middle;resizable=0;points=[];autosize=1;strokeColor=none;fillColor=none;fontSize=22;" parent="1" vertex="1">
          <mxGeometry x="-708" y="340" width="106" height="38" as="geometry" />
        </mxCell>
        <mxCell id="OHT-_fJKQ6jHZzlT6oBC-142" value="&lt;font style=&quot;font-size: 22px;&quot;&gt;&lt;font style=&quot;font-size: 22px;&quot;&gt;【2000,2050,2100,2150】&lt;/font&gt;&lt;/font&gt;" style="text;html=1;align=center;verticalAlign=middle;resizable=0;points=[];autosize=1;strokeColor=none;fillColor=none;fontSize=22;" parent="1" vertex="1">
          <mxGeometry x="-607" y="341" width="276" height="38" as="geometry" />
        </mxCell>
        <mxCell id="OHT-_fJKQ6jHZzlT6oBC-143" value="" style="endArrow=classic;html=1;rounded=0;fontSize=22;" parent="1" edge="1">
          <mxGeometry width="50" height="50" relative="1" as="geometry">
            <mxPoint x="173" y="164" as="sourcePoint" />
            <mxPoint x="367" y="164" as="targetPoint" />
          </mxGeometry>
        </mxCell>
        <mxCell id="OHT-_fJKQ6jHZzlT6oBC-144" value="" style="shape=flexArrow;endArrow=classic;html=1;rounded=0;fillColor=#60a917;strokeColor=#2D7600;endWidth=19;endSize=2.44;width=1;fontSize=22;" parent="1" edge="1">
          <mxGeometry width="50" height="50" relative="1" as="geometry">
            <mxPoint x="189" y="164" as="sourcePoint" />
            <mxPoint x="189" y="194" as="targetPoint" />
          </mxGeometry>
        </mxCell>
        <mxCell id="OHT-_fJKQ6jHZzlT6oBC-145" value="" style="shape=flexArrow;endArrow=classic;html=1;rounded=0;fillColor=#60a917;strokeColor=#2D7600;endWidth=19;endSize=2.44;width=1;fontSize=22;" parent="1" edge="1">
          <mxGeometry width="50" height="50" relative="1" as="geometry">
            <mxPoint x="210" y="164" as="sourcePoint" />
            <mxPoint x="210" y="194" as="targetPoint" />
          </mxGeometry>
        </mxCell>
        <mxCell id="OHT-_fJKQ6jHZzlT6oBC-147" value="" style="shape=flexArrow;endArrow=classic;html=1;rounded=0;fillColor=#60a917;strokeColor=#2D7600;endWidth=19;endSize=2.44;width=1;fontSize=22;" parent="1" edge="1">
          <mxGeometry width="50" height="50" relative="1" as="geometry">
            <mxPoint x="251" y="163" as="sourcePoint" />
            <mxPoint x="251" y="193" as="targetPoint" />
          </mxGeometry>
        </mxCell>
        <mxCell id="OHT-_fJKQ6jHZzlT6oBC-148" value="" style="shape=flexArrow;endArrow=classic;html=1;rounded=0;fillColor=#60a917;strokeColor=#2D7600;endWidth=19;endSize=2.44;width=1;fontSize=22;" parent="1" edge="1">
          <mxGeometry width="50" height="50" relative="1" as="geometry">
            <mxPoint x="273" y="164" as="sourcePoint" />
            <mxPoint x="273" y="182" as="targetPoint" />
          </mxGeometry>
        </mxCell>
        <mxCell id="OHT-_fJKQ6jHZzlT6oBC-149" value="" style="shape=flexArrow;endArrow=classic;html=1;rounded=0;endWidth=19;endSize=2.44;width=1;fillColor=#1ba1e2;strokeColor=#006EAF;fontSize=22;" parent="1" edge="1">
          <mxGeometry width="50" height="50" relative="1" as="geometry">
            <mxPoint x="294" y="164" as="sourcePoint" />
            <mxPoint x="294" y="134" as="targetPoint" />
          </mxGeometry>
        </mxCell>
        <mxCell id="OHT-_fJKQ6jHZzlT6oBC-150" value="&lt;font style=&quot;font-size: 22px;&quot;&gt;&lt;font style=&quot;font-size: 22px;&quot;&gt;方向序列&lt;/font&gt;&lt;/font&gt;" style="text;html=1;align=center;verticalAlign=middle;resizable=0;points=[];autosize=1;strokeColor=none;fillColor=none;fontSize=22;" parent="1" vertex="1">
          <mxGeometry x="37" y="142" width="106" height="38" as="geometry" />
        </mxCell>
        <mxCell id="OHT-_fJKQ6jHZzlT6oBC-151" value="&lt;font style=&quot;font-size: 22px;&quot;&gt;&lt;font style=&quot;font-size: 22px;&quot;&gt;标签&lt;/font&gt;&lt;/font&gt;" style="text;html=1;align=center;verticalAlign=middle;resizable=0;points=[];autosize=1;strokeColor=none;fillColor=none;fontSize=22;" parent="1" vertex="1">
          <mxGeometry x="-45" y="142" width="62" height="38" as="geometry" />
        </mxCell>
        <mxCell id="OHT-_fJKQ6jHZzlT6oBC-152" value="&lt;div style=&quot;font-size: 22px;&quot;&gt;&lt;font style=&quot;font-size: 22px;&quot;&gt;&lt;font style=&quot;font-size: 22px;&quot;&gt;0&lt;/font&gt;&lt;/font&gt;&lt;/div&gt;&lt;div style=&quot;font-size: 22px;&quot;&gt;&lt;font style=&quot;font-size: 22px;&quot;&gt;&lt;font style=&quot;font-size: 22px;&quot;&gt;1&lt;/font&gt;&lt;/font&gt;&lt;/div&gt;&lt;div style=&quot;font-size: 22px;&quot;&gt;&lt;font style=&quot;font-size: 22px;&quot;&gt;&lt;font style=&quot;font-size: 22px;&quot;&gt;0&lt;br style=&quot;font-size: 22px;&quot;&gt;&lt;/font&gt;&lt;/font&gt;&lt;/div&gt;&lt;div style=&quot;font-size: 22px;&quot;&gt;&lt;font style=&quot;font-size: 22px;&quot;&gt;&lt;font style=&quot;font-size: 22px;&quot;&gt;&lt;font style=&quot;font-size: 22px;&quot;&gt;0&lt;/font&gt;&lt;br style=&quot;font-size: 22px;&quot;&gt;&lt;/font&gt;&lt;/font&gt;&lt;/div&gt;" style="rounded=0;whiteSpace=wrap;html=1;fontSize=22;" parent="1" vertex="1">
          <mxGeometry x="-31.5" y="178" width="34" height="106" as="geometry" />
        </mxCell>
        <mxCell id="OHT-_fJKQ6jHZzlT6oBC-153" value="&lt;font style=&quot;font-size: 22px;&quot;&gt;&lt;font style=&quot;font-size: 22px;&quot;&gt;时间序列&lt;/font&gt;&lt;/font&gt;" style="text;html=1;align=center;verticalAlign=middle;resizable=0;points=[];autosize=1;strokeColor=none;fillColor=none;fontSize=22;" parent="1" vertex="1">
          <mxGeometry x="38" y="248" width="106" height="38" as="geometry" />
        </mxCell>
        <mxCell id="OHT-_fJKQ6jHZzlT6oBC-154" value="&lt;font style=&quot;font-size: 22px;&quot;&gt;&lt;font style=&quot;font-size: 22px;&quot;&gt;【1500,1550,1600,1650】&lt;/font&gt;&lt;/font&gt;" style="text;html=1;align=center;verticalAlign=middle;resizable=0;points=[];autosize=1;strokeColor=none;fillColor=none;fontSize=22;" parent="1" vertex="1">
          <mxGeometry x="137" y="249" width="276" height="38" as="geometry" />
        </mxCell>
        <mxCell id="OHT-_fJKQ6jHZzlT6oBC-155" value="" style="shape=flexArrow;endArrow=classic;html=1;rounded=0;fillColor=#60a917;strokeColor=#2D7600;endWidth=19;endSize=2.44;width=1;fontSize=22;" parent="1" edge="1">
          <mxGeometry width="50" height="50" relative="1" as="geometry">
            <mxPoint x="-514" y="256" as="sourcePoint" />
            <mxPoint x="-514" y="286" as="targetPoint" />
          </mxGeometry>
        </mxCell>
        <mxCell id="OHT-_fJKQ6jHZzlT6oBC-156" value="" style="shape=curlyBracket;whiteSpace=wrap;html=1;rounded=1;flipH=1;labelPosition=right;verticalLabelPosition=middle;align=left;verticalAlign=middle;fontSize=22;" parent="1" vertex="1">
          <mxGeometry x="-280" y="34" width="20" height="368" as="geometry" />
        </mxCell>
        <mxCell id="OHT-_fJKQ6jHZzlT6oBC-162" value="&lt;font style=&quot;font-size: 22px;&quot;&gt;&lt;font style=&quot;font-size: 22px;&quot;&gt;比例：0.5,0.5&lt;/font&gt;&lt;/font&gt;" style="text;html=1;align=center;verticalAlign=middle;resizable=0;points=[];autosize=1;strokeColor=none;fillColor=none;fontSize=22;" parent="1" vertex="1">
          <mxGeometry x="-234" y="244" width="151" height="38" as="geometry" />
        </mxCell>
        <mxCell id="w2WC6_elFUNRuHszqCy3-1" value="" style="rounded=0;whiteSpace=wrap;html=1;fillColor=none;fontSize=22;" parent="1" vertex="1">
          <mxGeometry x="-797" y="46" width="465" height="163" as="geometry" />
        </mxCell>
        <mxCell id="w2WC6_elFUNRuHszqCy3-2" value="" style="rounded=0;whiteSpace=wrap;html=1;fillColor=none;fontSize=22;" parent="1" vertex="1">
          <mxGeometry x="-797" y="223" width="465" height="163" as="geometry" />
        </mxCell>
        <mxCell id="w2WC6_elFUNRuHszqCy3-3" value="" style="rounded=0;whiteSpace=wrap;html=1;fillColor=none;fontSize=22;" parent="1" vertex="1">
          <mxGeometry x="-52" y="130" width="465" height="163" as="geometry" />
        </mxCell>
        <mxCell id="w2WC6_elFUNRuHszqCy3-4" value="" style="rounded=0;whiteSpace=wrap;html=1;fillColor=none;fontSize=22;" parent="1" vertex="1">
          <mxGeometry x="-835" y="-37" width="1298" height="446" as="geometry" />
        </mxCell>
      </root>
    </mxGraphModel>
  </diagram>
</mxfile>
